<svg xmlns="http://www.w3.org/2000/svg" width="435.794" height="140"><path fill="#FFF" d="M132.25 94.05q.45-.75 1.2-1.8c.7-1.1 1.3-1.9 1.8-2.7a22.4 22.4 0 0 1 2.4-2.9h-4.5l-.5 1.1h.7c.5 0 .7.1.7.4a2.59 2.59 0 0 1-.6 1.7l-2.7 4-4-7.1h-14.2l-.3 3.3h1.3l.1-.8c0-.4.2-.6.6-.9.7-.5 2.4-.5 3.8-.5V100a3.18 3.18 0 0 1-.2 1.4 1.77 1.77 0 0 1-.5.8h4.9l.4-1.1h-.7a1.43 1.43 0 0 1-1.3-.5 1.5 1.5 0 0 1-.2-1V87.65c.7 0 3.2 0 3.7.4a11.87 11.87 0 0 1 1.6 2 16.28 16.28 0 0 0 1.1 1.7 21.37 21.37 0 0 1 2.1 3.8v4a3.9 3.9 0 0 1-.2 1.6 2.41 2.41 0 0 1-.6.8h5l.4-1.1h-.7a1.7 1.7 0 0 1-1.3-.4 1.5 1.5 0 0 1-.2-1s-.1-3.7 0-4.2a4.14 4.14 0 0 0 .9-1.2zm-31.6-.9l-1.6-.7c-1.6-.7-3-1.5-2.8-2.9.4-2.6 6.1-3 5.6.4h1.5l.7-3.1a13.74 13.74 0 0 0-4.2-.6c-3.3 0-6.3 1.6-6 4.3.2 1.9 1.7 2.8 3.6 3.6l1.6.7c1.8.8 3.3 1.6 3.3 3.2s-1.7 3-3.9 3c-3 0-4-.9-4-.9l-5.8-6.3c2.2-.4 3.8-1.9 3.7-3.9-.1-2.5-2.9-3.4-5.3-3.3h-6.4l-.4 1h.6a1 1 0 0 1 .9.4c.4.4.4 1.4.4 2.4v9.8a2.49 2.49 0 0 1-.7 1.9h4.6l.4-1.1h-.6c-.9 0-1.2-.5-1.2-1.3v-11.9c2.5-.4 5.1.3 5.1 2.5 0 1.7-1.8 2.9-4.6 3l7.6 8.7s4.2.3 5.4.3c3.6.1 6.6-2 6.6-5 0-2.2-2-3.2-4.1-4.2zm-50.5-33.1h-1.5l.1-.7a2.24 2.24 0 0 0-.6-2.1c-.7-.8-3.5-.7-5.3-.7V74a3.23 3.23 0 0 0 .3 1.6 2.17 2.17 0 0 0 1.9.7h.8l-.4 1.1h-5.9a4.05 4.05 0 0 0 .5-.9 5.11 5.11 0 0 0 .3-2.1V56.55c-1.9 0-4.4 0-5.4.8-.6.5-.9.8-.9 1.5l-.1.9h-1.4l.5-4.4h18.1zM66 77.25h-4.4a4.21 4.21 0 0 0 .4-1.8V69a4.28 4.28 0 0 1-2.2.6c-.7 0-1.5.1-2.3.1-1.4.1-2.1.1-3.4.1V75c0 .9.3 1.3 1.3 1.3h.6l-.4 1.1H51a4.66 4.66 0 0 0 .6-2V65c0-.5.1-1.4-.3-1.8s-.6-.3-1.1-.3h-.6l.4-1.1h4.2c-.1.3-.2.4-.2.6a13.4 13.4 0 0 0-.1 2v3.7h7.9v-3.2c0-.5.1-1.4-.3-1.8-.2-.3-.6-.3-1-.3H60l.5-1.1h4.2c-.1.4-.2.4-.2.6a14.08 14.08 0 0 0-.1 2v10.5c0 .9.3 1.3 1.4 1.3h.7zm13 0H68a3.33 3.33 0 0 0 .6-1 5.46 5.46 0 0 0 .1-1.8v-8.9a8.2 8.2 0 0 0-.2-2.2 1.15 1.15 0 0 0-1.1-.6h-.6l.4-1h11.4l-.5 3.4h-1.4a2.17 2.17 0 0 0-.5-1.8c-.5-.5-1.9-.6-3.3-.6a5.25 5.25 0 0 0-1.8.2v5.2h6.2c-.4 1.1-1.2 1.3-2.3 1.4-.5 0-.9.1-1.5.1a20.83 20.83 0 0 1-2.5 0v4.6a2.59 2.59 0 0 0 .4 1.4 4.9 4.9 0 0 0 2.5.4c1.2 0 2.2 0 2.9-.8a3.11 3.11 0 0 0 .9-1.7h1.6zm-54.65 25h-5v-2c-3.4 1.8-6.7 3.1-10.5 2-4.4-1.3-4.1-6.5-4.2-11.1 0-3.5.9-7.8.3-9a1.89 1.89 0 0 0-1.6-.9h-.6l.3-1.1h5.5a2.46 2.46 0 0 0-.4 1.1 71 71 0 0 0-.9 10.3c0 4.1.3 7.8 3.9 8.8 3.1.9 5.7 0 8.1-1.6v-14.9c0-.9 0-1.6-.7-2.1a2.35 2.35 0 0 0-1.6-.5h-.3l.3-1.1h5.5a3.49 3.49 0 0 0-.5 1.3 9.66 9.66 0 0 0-.1 2.4v14c0 1.1 0 2.1.9 2.7a2.35 2.35 0 0 0 1.6.5h.4zm16.4-14.4a16.41 16.41 0 0 0-.2 2.3v12h-1.9a2.62 2.62 0 0 0-.6-1.3 14.63 14.63 0 0 0-.9-1.3l-8.5-9.9v8.6a6 6 0 0 0 .3 2.3 1.27 1.27 0 0 0 1.1.5h.6l-.4 1.1h-4.4a2.59 2.59 0 0 0 .7-1.1 5.58 5.58 0 0 0 .3-2.2v-9c0-.5 0-1.5-.4-1.9-.2-.3-.6-.3-1-.3h-.6l.4-1h4.6a5.15 5.15 0 0 0 1.4 2.1l7.8 9.1v-7.8a3.16 3.16 0 0 0-.4-2.1 1.16 1.16 0 0 0-1-.4h-.6l.4-1h4a5.73 5.73 0 0 0-.7 1.3zm8.4 14.4h-4.9a3.51 3.51 0 0 0 .5-.8A3.64 3.64 0 0 0 45 100V89.25a1.56 1.56 0 0 0-.3-1.2 1.09 1.09 0 0 0-.9-.4h-.5l.4-1H48a3.51 3.51 0 0 0-.5.8 5.57 5.57 0 0 0-.2 2v10.2a2.51 2.51 0 0 0 .2 1 1.46 1.46 0 0 0 1.2.4h.7zm14.2-11.6c-.6 1.2-1.1 2.5-1.8 4.1-1.2 2.6-2.4 5.7-2.5 7.6H57a56.21 56.21 0 0 0-2.8-8 33.57 33.57 0 0 0-3-5.9 1.52 1.52 0 0 0-1.2-.7h-.6l.3-1h3.9l4.8 11.7 3.6-8.5a2.7 2.7 0 0 0 .3-1.6 1 1 0 0 0-1-.6h-.6l.3-1h4.8a19 19 0 0 0-2.45 3.9zm15.5 11.5h-11a3.33 3.33 0 0 0 .6-1 5.46 5.46 0 0 0 .1-1.8v-8.9a8.2 8.2 0 0 0-.2-2.2 1.15 1.15 0 0 0-1.1-.6h-.6l.4-1h11.4l-.5 3.4h-1.4a2.17 2.17 0 0 0-.5-1.8c-.5-.5-1.9-.6-3.3-.6a5.25 5.25 0 0 0-1.8.2v5.2h6.2c-.4 1.1-1.2 1.3-2.3 1.4-.5 0-.9.1-1.5.1a20.83 20.83 0 0 1-2.5 0v4.6a2.59 2.59 0 0 0 .4 1.4 4.9 4.9 0 0 0 2.5.4c1.2 0 2.2 0 2.9-.8a3.11 3.11 0 0 0 .9-1.7h1.6zm32.9.1h-4.9a3.51 3.51 0 0 0 .5-.8 3.64 3.64 0 0 0 .2-1.5v-10.7a1.56 1.56 0 0 0-.3-1.2 1.09 1.09 0 0 0-.9-.4h-.5l.4-1h4.4a3.51 3.51 0 0 0-.5.8 5.57 5.57 0 0 0-.2 2v10.2a2.51 2.51 0 0 0 .2 1 1.46 1.46 0 0 0 1.2.4h.7zM54.65 119c.7 3.5-1.1 7-4.8 7.7s-6.8-2.1-7.5-5.7.8-7.1 4.6-7.8 7.05 2.15 7.7 5.8zm2.8-.1c-.6-4.5-4.5-7.7-10-6.9-5.3.7-8.3 4.4-7.7 9.1.6 4.5 4.3 7.5 9.7 6.8s8.55-4.45 8-9.05zM69 115.55h-1.4a2.33 2.33 0 0 0-.6-1.8c-.4-.5-1.6-.6-2.9-.6a5.25 5.25 0 0 0-1.8.2v5.2h6.2a2 2 0 0 1-.8 1.2 9.82 9.82 0 0 1-2.8.4 22.53 22.53 0 0 1-2.6 0v4.9a2.23 2.23 0 0 0 .4 1.3 1.6 1.6 0 0 0 1.1.4h.8a10.23 10.23 0 0 0-.3 1.1h-5a3.33 3.33 0 0 0 .6-1 5.31 5.31 0 0 0 .1-1.8v-8.9a9 9 0 0 0-.2-2.3 1.25 1.25 0 0 0-1.2-.5h-.7l.4-1h11.1zm15.35 12.3h-5.9a4.05 4.05 0 0 0 .5-.9 5.11 5.11 0 0 0 .3-2.1v-15.5a2.29 2.29 0 0 0-.4-1.7 1.82 1.82 0 0 0-1.4-.6H77l.3-1.1h5.3a5.58 5.58 0 0 0-.5.8 9 9 0 0 0-.4 3.1v14.6a3.51 3.51 0 0 0 .3 1.6 2.17 2.17 0 0 0 1.9.7h.7zm15.8-8.85c.7 3.5-1.1 7-4.8 7.7s-6.8-2.1-7.5-5.7.8-7.1 4.6-7.8a6.73 6.73 0 0 1 7.7 5.8zm2.8-.1c-.6-4.5-4.5-7.7-10-6.9-5.3.7-8.3 4.4-7.7 9.1.6 4.5 4.3 7.5 9.7 6.8s8.6-4.45 8.05-9.05zm21.3-2.85c-.6 1.2-1.1 2.5-1.8 4.1a22.49 22.49 0 0 0-2.1 7.6h-2a63.89 63.89 0 0 0-2.5-7.6 12.2 12.2 0 0 0-.7-1.7c-.3.6-.6 1.1-1.2 2.4a22.22 22.22 0 0 0-2.1 7h-2.1a56.21 56.21 0 0 0-2.8-8 33.57 33.57 0 0 0-3-5.9 1.52 1.52 0 0 0-1.2-.7h-.5l.3-1h4l4.5 11.8c.7-1.5 3.1-7.1 3.1-7.2a13 13 0 0 0-1.5-3c-.4-.4-.7-.7-1.2-.7h-.6l.4-1h4c1.3 3.3 3.2 8.6 4.2 11.6l3.3-8.2c.3-.7.6-1.6.4-1.8a1 1 0 0 0-1-.6h-.6l.3-1h4.8a23 23 0 0 0-2.4 3.9zm8.75 4.5a22.4 22.4 0 0 1-4.5-.1l2.3-5.7zm6.9 6h-.6a1.52 1.52 0 0 1-1.2-.7c-.5-.5-1.8-3.6-2.8-6a62 62 0 0 1-2.7-7.9H129c.8 1.6-.6 4.8-1.8 7.5a35 35 0 0 1-4.5 8.2h5l.3-1.1h-.6a.92.92 0 0 1-1-.6 3.64 3.64 0 0 1 .3-1.6l1-2.3h3.6a2.35 2.35 0 0 0 1.9-.7l2.3 6.4h3.9zm-26.65-114.2c0 1-.1 2.7.4 3 1.4.9 3.8 1.6 4.6 2.5.2.2 0 1.9-.6 1.8a22.86 22.86 0 0 0-6.8-.8 3.7 3.7 0 0 1-.9-2c0-.5.7-1 .9-1.8.4-1.3.1-7.5.2-11.7 0-.9.1-1.3 1-1.3s1 .6 1 1.3c.1 3 .2 6.1.2 9zm15.4 31.9a11.21 11.21 0 0 1 3.2 0 .62.62 0 0 1 .5.3 5.83 5.83 0 0 1 .2 2.3c0 1-.5 1.5-.5 2.3.1 6.7.2 14.6-.1 16-.6 2.4-.5 2.8-1.5 2.9-.3 0-.6 0-.7-.9a16.53 16.53 0 0 1-.2-2.7c0-2.8 0-9.9-.1-12.7-.1-2.5-.8-2.7-.9-2.8s-.6-.3-.6-.7a8.52 8.52 0 0 1 .4-3.6c0-.1.1-.4.3-.4zm5.1 29.75c-2.3 0-5.7.1-6.4-.3-.4-.3-.4-.9-.4-2.2-.2-8.5.1-16.9-.1-25.4 0-.7-.2-1.9-1.3-1.9a22.52 22.52 0 0 0-4 .1.78.78 0 0 0-.4.4 8.75 8.75 0 0 0-.5 3.6c0 .3.2.6.7.7 1.2.3 1.9 1 1.9 2.8.1 6.4.2 18.9-.6 21-.4 1-2.3 1.7-2.9.6-.4-.8-.3-19.6-.3-27.3 0-1.4-.4-1.9-1.9-1.9H112a.69.69 0 0 0-.6.5c-.4 1.1-.7 3.6-.4 3.9a1 1 0 0 0 .6.4c2.5.3 3.7 1.4 3.7 4 .1 4 .7 18.9-1.1 20.5-.7.6-3.4.5-4 .3a1.07 1.07 0 0 1-.7-.9c-.5-4.5.2-26.8-.3-28a1 1 0 0 0-.8-.6c-.7-.2-4 0-4.7-.2-.1-.1-.4-.1-.4-.4a4.31 4.31 0 0 1 .3-2.3.91.91 0 0 1 .8-.3c9.8 0 23.8.1 29.1-.1.3 0 .9-.1 1-.6a8.32 8.32 0 0 0 .3-2.6c-.1-.3-.2-.4-.5-.4-.6-.1-22 0-32.9-.2-.6 0-1.6.1-1.8-.4a5 5 0 0 1 .1-2.1c1.1-2.1 2-1.7 2.7-4.8.4-1.9-.2-3.4.7-4.9 1.2-2 2.2-2.7 3-4.1a1.5 1.5 0 0 0-1.6-2 23.35 23.35 0 0 0-7.6 7.3c-1.9 3.2-2.6 6.7-3.9 10.1-.3.9-.8 1.1-2.2 1.2-.8.1-1.2 3.1-.6 3.5.1.1.3.1.4.2 1.2.3 1.7 1.8 1.7 3.2 0 0 .3 25.3-.4 28-.5 1.9-1 1.6-1.5 1.9a.75.75 0 0 0-.3.3 6.61 6.61 0 0 0-.3 2.5c.1.2.1.4.5.4h43.5c.4 0 .5-.1.7-.6a8.81 8.81 0 0 0 .3-2.1 1 1 0 0 0-1.05-.8zm-37.2-.8c-.8.9-1.5 1.2-1.5.2-.1-7 0-21.7.1-22.1.2-.8 1.3-1.2 1.8.1.6 1.45.9 20.35-.4 21.75zm7.7 0c-.8.9-2.5 1.2-2.9.2-.6-1.6-.3-23.3-.2-23.7.2-.8 1.7-.7 2.2-.4 1.3.9 1.5 1.6 1.6 3.7.4 5.75.5 18.75-.7 20.15zm107.097-2.08q0 3.62-1.207 6.283t-3.32 4.42-5.005 2.609-6.266.852q-1.597 0-3.23-.106t-3.195-.533V60.399h8.627q2.875 0 5.36.426t4.313 1.597 2.876 3.266 1.047 5.432zm-5.219.852q0-2.272-.585-3.763t-1.686-2.361-2.698-1.207-3.657-.337h-3.728v16.862q.782.249 1.598.302t1.633.053q2.166 0 3.87-.692t2.875-1.953 1.775-3.017.604-3.887zM215.501 85V66.682h4.33V85h-4.33zm4.827-24.602q0 1.207-.674 1.864t-1.952.657q-1.243 0-1.953-.71t-.71-1.881q0-1.137.71-1.829t1.882-.692q1.242 0 1.97.692t.728 1.9zM234.031 85h-3.62l-7.243-18.318h4.828l4.686 12.105 3.906-12.105h4.047zm10.367 0V66.682h4.33V85h-4.33zm4.828-24.602q0 1.207-.675 1.864t-1.952.657q-1.243 0-1.953-.71t-.71-1.881q0-1.137.71-1.829t1.882-.692q1.242 0 1.97.692t.728 1.9zm9.407 24.992q-.71 0-1.491-.106t-1.562-.302-1.491-.514-1.278-.746l1.1-3.16q.994.746 2.166 1.208t2.414.461q1.03 0 1.81-.532t.781-1.669q0-.817-.585-1.296t-1.474-.87-1.934-.78-1.935-1.012-1.473-1.58-.586-2.485.55-2.61 1.473-1.757 2.148-.994 2.61-.319q1.313 0 2.697.284t2.485 1.03l-1.065 3.194q-.852-.603-1.881-.905t-2.095-.302q-.816 0-1.526.373t-.71 1.367q0 .816.603 1.296t1.491.852 1.935.763 1.935.994 1.491 1.562.603 2.45q0 1.597-.585 2.75t-1.562 1.9-2.29 1.1-2.769.355zm11.893-.39V66.682h4.33V85h-4.33zm4.827-24.602q0 1.207-.674 1.864t-1.952.657q-1.243 0-1.953-.71t-.71-1.881q0-1.137.71-1.829t1.881-.692q1.243 0 1.97.692t.729 1.9zM288.17 85.39q-2.059 0-3.692-.674t-2.787-1.9-1.757-2.91-.604-3.71q0-2.165.604-3.976t1.775-3.124 2.893-2.041 3.958-.728q2.06 0 3.692.675t2.787 1.899 1.757 2.893.604 3.692q0 2.165-.604 3.976t-1.775 3.124-2.893 2.059-3.958.745zm.142-3.337q1.313 0 2.183-.567t1.367-1.456.692-2.006.195-2.219q0-1.029-.195-2.13t-.692-1.987-1.331-1.456-2.112-.568q-1.314 0-2.166.55t-1.349 1.438-.692 2.006-.196 2.219q0 1.065.196 2.147t.692 1.988 1.313 1.474 2.095.567zM313.551 85V74.634q0-.852-.124-1.686t-.479-1.491-.994-1.047-1.669-.391q-1.349 0-2.165.515t-1.243 1.331-.55 1.9-.124 2.182V85h-4.331V66.682h3.763v3.372l1.704-2.591q1.1-.604 2.148-.852t2.29-.249q3.336 0 4.703 1.775t1.367 4.935V85h-4.296zm28.081.39q-2.059 0-3.692-.674t-2.787-1.9-1.757-2.91-.604-3.71q0-2.165.604-3.976t1.775-3.124 2.893-2.041 3.958-.728q2.06 0 3.693.675T348.5 68.9t1.758 2.893.603 3.692q0 2.165-.604 3.976t-1.774 3.124-2.894 2.059-3.958.745zm.142-3.337q1.313 0 2.183-.567t1.367-1.456.692-2.006.195-2.219q0-1.029-.195-2.13t-.692-1.987-1.331-1.456-2.112-.568q-1.314 0-2.166.55t-1.349 1.438-.692 2.006-.195 2.219q0 1.065.195 2.147t.692 1.988 1.313 1.474 2.095.567zM359.666 85h-4.331V70.09h-2.272v-3.408h2.272v-3.053q0-2.982 1.26-4.562t4.384-1.58q.923 0 1.74.125t1.669.55l-.107 3.23q-.994-.354-2.13-.354-.923 0-1.42.355t-.746.94-.284 1.314-.035 1.438v1.597h4.295v3.408h-4.295V85zm-171.004 37.63q1.136.852 2.432 1.313t2.751.462q1.527 0 2.627-.71t1.101-2.414q0-1.349-.763-2.13t-1.935-1.349-2.503-1.1-2.503-1.35-1.934-2.112-.763-3.425q0-1.882.656-3.266t1.793-2.273 2.663-1.313 3.266-.426q1.597 0 3.159.373t2.911 1.26l-1.42 3.514q-1.03-.71-2.201-1.1t-2.414-.39q-.674 0-1.296.16t-1.082.514-.746.887-.284 1.279q0 1.313.781 2.076t1.953 1.314 2.556 1.065 2.556 1.349 1.952 2.165.781 3.462q0 1.952-.71 3.39t-1.9 2.36-2.786 1.385-3.408.462q-1.704 0-3.55-.48t-3.195-1.508zm27.975 4.011q-1.136.71-2.45.994t-2.627.284q-.887 0-1.757-.212t-1.509-.852q-.781-.746-.923-1.758t-.142-2.005V112.69h-2.272v-3.408h2.272l.355-5.218h3.976v5.218h4.295v3.408h-4.295v9.017q0 .532.035 1.012t.214.852.55.586 1.012.213q1.42 0 2.804-.569l.462 2.84zm15.655.959l-.284-2.236-1.207 1.703q-.958.497-1.988.693t-2.165.195q-3.053 0-4.527-1.669t-1.473-4.686v-12.318h4.331v11.324q0 .852.124 1.598t.462 1.278.958.852 1.58.32q1.207 0 1.935-.391t1.118-1.065.532-1.597.142-1.953v-10.366h4.331v14.555q0 .923.054 1.881t.124 1.882h-4.047zm21.3 0l-.355-2.663-1.42 2.166q-.816.462-1.58.621t-1.686.16q-1.952 0-3.461-.728t-2.52-1.952-1.527-2.876-.515-3.461q0-2.059.71-4.1t2.272-3.497q1.385-1.314 3.177-1.828t3.71-.515q.71 0 1.385.106t1.313.391v-8.84h4.331v22.117q0 .426.018 1.083t.053 1.366.071 1.367.071 1.083h-4.047zm-.532-14.555q-.391-.604-1.207-.834t-1.74-.231q-1.349 0-2.254.532t-1.473 1.403-.817 1.97-.248 2.272q0 .959.195 2.041t.674 2.024 1.278 1.562 1.97.621q1.101 0 1.793-.444t1.1-1.171.569-1.615.16-1.811v-6.319zm25.382 4.26q0 .39-.018.817t-.053.816l-11.963-.035q.106 2.804 1.881 4.189t4.438 1.384q1.171 0 2.325-.302t2.219-.798l.532 3.053q-1.384.887-3.177 1.224t-3.426.338q-2.165 0-3.905-.675t-2.946-1.917-1.864-3-.657-3.922.55-3.923 1.669-3.018 2.769-1.934 3.887-.675q2.095 0 3.568.586t2.396 1.668 1.349 2.627.426 3.497zm-4.58-1.243q-.035-.851-.195-1.615t-.532-1.349-1.03-.94-1.65-.356q-.959 0-1.687.355t-1.207.941-.745 1.385-.302 1.686zm20.661 11.538v-10.366q0-.852-.124-1.686t-.479-1.491-.994-1.048-1.669-.39q-1.349 0-2.165.515t-1.242 1.331-.55 1.9-.125 2.182v9.053h-4.331v-18.318h3.763v3.372l1.704-2.591q1.1-.604 2.148-.852t2.29-.249q3.336 0 4.703 1.775t1.367 4.935V127.6h-4.296zm19.774-.959q-1.136.71-2.45.994t-2.626.284q-.888 0-1.758-.212t-1.509-.852q-.78-.746-.923-1.758t-.142-2.005V112.69h-2.272v-3.408h2.272l.355-5.218h3.976v5.218h4.296v3.408h-4.295v9.017q0 .532.035 1.012t.213.852.55.586 1.012.213q1.42 0 2.805-.569l.461 2.84zm14.839.959v-24.602h4.65v20.661h9.16v3.941h-13.81zm17.963 0v-18.318h4.331V127.6h-4.331zm4.828-24.601q0 1.207-.674 1.863t-1.953.657q-1.242 0-1.952-.71t-.71-1.881q0-1.136.71-1.829t1.881-.692q1.243 0 1.97.692t.728 1.9zm10.082 24.601h-4.331v-14.91h-2.272v-3.408h2.272v-3.053q0-2.982 1.26-4.562t4.384-1.58q.923 0 1.74.125t1.669.55l-.107 3.23q-.994-.354-2.13-.354-.923 0-1.42.354t-.746.941-.283 1.314-.036 1.438v1.597h4.295v3.408h-4.295v14.91zm22.507-10.295q0 .39-.018.817t-.053.816l-11.963-.035q.106 2.804 1.881 4.189t4.438 1.384q1.171 0 2.325-.302t2.219-.798l.532 3.053q-1.384.887-3.177 1.224t-3.426.338q-2.165 0-3.905-.675t-2.946-1.917-1.864-3-.657-3.922.55-3.923 1.669-3.018 2.769-1.934 3.887-.675q2.095 0 3.568.586t2.396 1.668 1.349 2.627.426 3.497zm-4.58-1.243q-.035-.851-.195-1.615t-.532-1.349-1.03-.94-1.65-.356q-.959 0-1.687.355t-1.207.941-.745 1.385-.302 1.686zM161 38h2.5v90H161"/></svg>